<svg xmlns="http://www.w3.org/2000/svg" viewBox="0 0 31.87 26.01"><defs><style>.cls-1{fill:#d1d1d1;}</style></defs><title>Asset 20</title><g id="Layer_2" data-name="Layer 2"><g id="WEBSITE"><g id="desktop"><g id="future_of_work"><path class="cls-1" d="M12.87,4C5.76,4,0,8.4,0,13.87a8.85,8.85,0,0,0,3.65,6.9c-.14,1.82-.57,4-1.84,5.24,2.53,0,5.1-1.58,6.73-2.82a16.11,16.11,0,0,0,4.33.58c7.11,0,12.87-4.44,12.87-9.9S20,4,12.87,4Zm0,0"/><path class="cls-1" d="M30,14.83A8.13,8.13,0,0,0,31.7,9.9C31.7,4.43,25.93,0,18.82,0a15.37,15.37,0,0,0-8.23,2.28A18.1,18.1,0,0,1,13.87,2c7.65,0,13.86,4.88,13.86,10.89a9.39,9.39,0,0,1-2.59,6.36c1.63,1.24,4.21,2.82,6.73,2.82-1.8-1.7-1.92-5.48-1.88-7.23Zm0,0"/></g></g></g></g></svg>