<svg xmlns="http://www.w3.org/2000/svg" viewBox="0 0 22.85 28.72"><defs><style>.cls-1{fill:#d1d1d1;}</style></defs><title>Asset 27</title><g id="Layer_2" data-name="Layer 2"><g id="WEBSITE"><g id="desktop"><g id="future_of_work"><path class="cls-1" d="M22.4,19c-1.38,2.23-5.77,3.85-11,3.85S1.82,21.22.45,19C.16,18.52,0,18.78,0,19v3.27c0,3.16,5.11,6.44,11.42,6.44s11.42-3.28,11.42-6.44V19c0-.23-.16-.49-.45,0Zm0-8.35c-1.35,2-5.76,3.41-11,3.41s-9.64-1.44-11-3.41c-.28-.41-.43-.18-.43,0v3.85c0,2.88,5.11,5.21,11.42,5.21s11.42-2.33,11.42-5.21V10.65c0-.18-.15-.4-.43,0ZM11.42,0C5.11,0,0,1.92,0,4.3V6.35c0,2.52,5.11,4.56,11.42,4.56s11.42-2,11.42-4.56V4.3c0-2.37-5.11-4.3-11.42-4.3Zm0,0"/></g></g></g></g></svg>