<svg xmlns="http://www.w3.org/2000/svg" viewBox="0 0 32.29 32.29"><defs><style>.cls-1{fill:#d1d1d1;fill-rule:evenodd;}</style></defs><title>Asset 24</title><g id="Layer_2" data-name="Layer 2"><g id="WEBSITE"><g id="desktop"><g id="future_of_work"><path class="cls-1" d="M32.18,14.35a1.05,1.05,0,0,0-1-.8,3.56,3.56,0,0,1-2.44-6.2.9.9,0,0,0,.1-1.22,16,16,0,0,0-2.56-2.58.9.9,0,0,0-1.23.1,3.72,3.72,0,0,1-4,.9,3.59,3.59,0,0,1-2.18-3.5A.9.9,0,0,0,18,.11a16.11,16.11,0,0,0-3.63,0,.9.9,0,0,0-.8.92,3.59,3.59,0,0,1-2.21,3.44,3.73,3.73,0,0,1-4-.91.9.9,0,0,0-1.22-.1A16,16,0,0,0,3.55,6a.9.9,0,0,0,.1,1.23,3.58,3.58,0,0,1,.9,4A3.73,3.73,0,0,1,1,13.47a.88.88,0,0,0-.93.79,16.17,16.17,0,0,0,0,3.67,1.07,1.07,0,0,0,1.06.79,3.54,3.54,0,0,1,3.32,2.21,3.59,3.59,0,0,1-.9,4,.9.9,0,0,0-.1,1.22A16,16,0,0,0,6,28.73a.9.9,0,0,0,1.23-.1,3.72,3.72,0,0,1,4-.91,3.58,3.58,0,0,1,2.18,3.5.9.9,0,0,0,.79.94,16.08,16.08,0,0,0,3.63,0,.9.9,0,0,0,.8-.92,3.59,3.59,0,0,1,2.21-3.44,3.73,3.73,0,0,1,4,.91.9.9,0,0,0,1.22.1,16.08,16.08,0,0,0,2.61-2.58.9.9,0,0,0-.1-1.23,3.58,3.58,0,0,1-.9-4A3.61,3.61,0,0,1,31,18.81h.2a.9.9,0,0,0,.94-.79,16.11,16.11,0,0,0,0-3.67Zm-16,7.21a5.38,5.38,0,1,1,5.38-5.38,5.39,5.39,0,0,1-5.38,5.38Zm0,0"/></g></g></g></g></svg>