<svg xmlns="http://www.w3.org/2000/svg" viewBox="0 0 30.81 26.96"><defs><style>.cls-1{fill:#d1d1d1;}</style></defs><title>Asset 28</title><g id="Layer_2" data-name="Layer 2"><g id="WEBSITE"><g id="desktop"><g id="future_of_work"><path class="cls-1" d="M3.85,27H15.41a7.7,7.7,0,0,1-7.7-7.7V15.41c7.7,0,7.7-7.7,7.7-7.7s0,7.7,7.7,7.7v3.85a7.71,7.71,0,0,1-7.7,7.7H27a3.85,3.85,0,0,0,3.85-3.85A3.85,3.85,0,0,1,27,19.26v-7.7a11.55,11.55,0,1,0-23.11,0v7.7A3.85,3.85,0,0,1,0,23.11,3.85,3.85,0,0,0,3.85,27Zm0,0"/></g></g></g></g></svg>