<svg xmlns="http://www.w3.org/2000/svg" viewBox="0 0 30.73 30.73"><defs><style>.cls-1{fill:#d1d1d1;}</style></defs><title>Asset 19</title><g id="Layer_2" data-name="Layer 2"><g id="WEBSITE"><g id="desktop"><g id="future_of_work"><path class="cls-1" d="M15.37,0A15.37,15.37,0,1,0,30.73,15.37,15.37,15.37,0,0,0,15.37,0Zm6.29,9.08a2.1,2.1,0,1,1-2.1,2.1,2.1,2.1,0,0,1,2.1-2.1Zm-12.57,0A2.1,2.1,0,1,1,7,11.18a2.1,2.1,0,0,1,2.1-2.1Zm6.29,17.56A10.59,10.59,0,0,1,5.25,19.18H25.48a10.59,10.59,0,0,1-10.12,7.46Zm0,0"/></g></g></g></g></svg>