<svg xmlns="http://www.w3.org/2000/svg" viewBox="0 0 21.29 31.86"><defs><style>.cls-1{fill:#d1d1d1;}</style></defs><title>Asset 18</title><g id="Layer_2" data-name="Layer 2"><g id="WEBSITE"><g id="desktop"><g id="future_of_work"><path class="cls-1" d="M14.58,23.83H6.7a1.06,1.06,0,0,0,0,2.12h7.88a1.06,1.06,0,1,0,0-2.12Zm0,0"/><path class="cls-1" d="M8.58,30.1v.58a1.18,1.18,0,0,0,1.18,1.18h1.76a1.18,1.18,0,0,0,1.18-1.18V30.1a2.57,2.57,0,0,0,2.4-2.56H6.18a2.57,2.57,0,0,0,2.4,2.56Zm0,0"/><path class="cls-1" d="M10.64,0A10.63,10.63,0,0,0,2.28,17.21a45.44,45.44,0,0,1,3.48,5.1h9.76A45.28,45.28,0,0,1,19,17.21,10.63,10.63,0,0,0,10.64,0Zm0,3.69a6.86,6.86,0,0,0-6.85,6.85,1.06,1.06,0,0,1-2.12,0,9,9,0,0,1,9-9,1.06,1.06,0,1,1,0,2.12Zm0,0"/></g></g></g></g></svg>