<svg xmlns="http://www.w3.org/2000/svg" viewBox="0 0 20.39 35.92"><defs><style>.cls-1{fill:#d1d1d1;}</style></defs><title>Asset 16</title><g id="Layer_2" data-name="Layer 2"><g id="WEBSITE"><g id="desktop"><g id="future_of_work"><path class="cls-1" d="M20.39,18.93h-3A7.17,7.17,0,0,1,3,18.93H0A10.2,10.2,0,0,0,8.74,29v6.37a.6.6,0,0,0,.65.53H11a.6.6,0,0,0,.65-.53V29a10.2,10.2,0,0,0,8.74-10.09Zm0,0"/><path class="cls-1" d="M16.5,6.31a6.31,6.31,0,0,0-12.62,0V18.45a6.31,6.31,0,1,0,12.62,0Zm0,0"/></g></g></g></g></svg>