<svg xmlns="http://www.w3.org/2000/svg" viewBox="0 0 29.69 29.69"><defs><style>.cls-1{fill:#d1d1d1;}</style></defs><title>Asset 21</title><g id="Layer_2" data-name="Layer 2"><g id="WEBSITE"><g id="desktop"><g id="future_of_work"><path class="cls-1" d="M26.16,14.14H24V8.49a2.84,2.84,0,0,0-2.83-2.83H15.55V3.53a3.53,3.53,0,1,0-7.07,0V5.65H2.83A2.84,2.84,0,0,0,0,8.49v5.37H2.12a3.82,3.82,0,0,1,0,7.64H0v5.37a2.84,2.84,0,0,0,2.83,2.83H8.2V27.57a3.82,3.82,0,1,1,7.64,0v2.12h5.37A2.84,2.84,0,0,0,24,26.86V21.21h2.12a3.53,3.53,0,1,0,0-7.07Zm0,0"/></g></g></g></g></svg>