<svg xmlns="http://www.w3.org/2000/svg" viewBox="0 0 30.41 32.55"><defs><style>.cls-1{fill:#d1d1d1;}</style></defs><title>Asset 22</title><g id="Layer_2" data-name="Layer 2"><g id="WEBSITE"><g id="desktop"><g id="future_of_work"><path class="cls-1" d="M2.62,13.61A2.6,2.6,0,0,0,5,12,11.06,11.06,0,0,1,15.2,5.22a10.9,10.9,0,0,1,6.7,2.3l-1.46.23a1.14,1.14,0,0,0-.29,2.16l8,3.6a1.14,1.14,0,0,0,1.6-1l0-8.82A1.13,1.13,0,0,0,27.72,3l-1.1,1.66A16.26,16.26,0,0,0,.21,10a2.62,2.62,0,0,0,2.42,3.65Zm0,0"/><path class="cls-1" d="M30,20.12a2.61,2.61,0,0,0-4.58.42A11.05,11.05,0,0,1,15.2,27.33,10.91,10.91,0,0,1,8.51,25L10,24.8a1.13,1.13,0,0,0,.29-2.16l-8-3.6a1.14,1.14,0,0,0-1.6,1l0,8.82a1.13,1.13,0,0,0,2.08.63l1.1-1.66A16.26,16.26,0,0,0,30.2,22.59,2.62,2.62,0,0,0,30,20.12Zm0,0"/></g></g></g></g></svg>