<svg xmlns="http://www.w3.org/2000/svg" viewBox="0 0 28.44 31.89"><defs><style>.cls-1{fill:#d1d1d1;}</style></defs><title>Asset 30</title><g id="Layer_2" data-name="Layer 2"><g id="WEBSITE"><g id="desktop"><g id="future_of_work"><path class="cls-1" d="M14.22,31.89A14.23,14.23,0,0,1,4,7.74a2.3,2.3,0,0,1,3.1-.25,2.18,2.18,0,0,1,.13,3.2A9.85,9.85,0,1,0,21.19,24.63c3.21-3.21,3.93-8.22,1.2-12.78a2.31,2.31,0,0,0-.76-.8,2.19,2.19,0,0,1-.39-3.49,2.3,2.3,0,0,1,3.17.19A14.23,14.23,0,0,1,14.22,31.89Zm0,0"/><path class="cls-1" d="M14.22,15.32A2.19,2.19,0,0,1,12,13.13V2.31A2.27,2.27,0,0,1,13.69.06a2.19,2.19,0,0,1,2.73,2.12V13.13a2.19,2.19,0,0,1-2.19,2.19Zm0,0"/></g></g></g></g></svg>