<svg xmlns="http://www.w3.org/2000/svg" viewBox="0 0 11 39.05"><defs><style>.cls-1{fill:#d1d1d1;}</style></defs><title>Asset 25</title><g id="Layer_2" data-name="Layer 2"><g id="WEBSITE"><g id="desktop"><g id="future_of_work"><path class="cls-1" d="M11,2.2A8.31,8.31,0,0,1,8.81,6.87C8,7.7,6.6,7.7,5.5,7.7S3,7.7,2.19,6.87A8.31,8.31,0,0,1,0,2.2C0,.27,3.36,0,5.5,0S11,.27,11,2.2ZM2.71,9,.78,30.93A6,6,0,0,0,2.31,35.5L5.5,39l3.32-3.49a6,6,0,0,0,1.63-4.76L8.3,9a.55.55,0,0,0-.55-.5H3.25a.55.55,0,0,0-.55.5Zm0,0"/></g></g></g></g></svg>